<svg width="200" height="200" xmlns="http://www.w3.org/2000/svg" version="1.1">
 <title>icon-code</title>
 <defs>
  <linearGradient id="linearGradient-1" y2="100%" x2="50%" y1="0%" x1="50%">
   <stop offset="19.9502158%" stop-color="#00339A"/>
   <stop offset="100%" stop-color="#125DF6"/>
  </linearGradient>
 </defs>
 <g>
  <title>Layer 1</title>
  <g stroke="null" fill-rule="evenodd" fill="none" id="2023">
   <g stroke="null" id="Artboard">
    <g stroke="null" id="icon-code">
     <rect stroke="null" height="198.00002" width="198.00002" y="2" x="2" id="bound"/>
     <path stroke="null" fill="url(#linearGradient-1)" id="Rectangle-Copy" d="m21.29593,80.5259c10.50068,-12.51426 29.15798,-14.14652 41.67224,-3.64584l71.21409,59.75575c12.51426,10.50068 14.14652,29.15798 3.64584,41.67216c-10.50068,12.51426 -29.15798,14.14661 -41.67224,3.64584l-71.21409,-59.75566c-12.51426,-10.50077 -14.14652,-29.15806 -3.64584,-41.67224z"/>
     <path stroke="null" fill="#125DF6" id="Rectangle" d="m24.9845,76.92667l71.21409,-59.75575c12.51426,-10.50068 31.17155,-8.86842 41.67224,3.64584c10.50068,12.51426 8.86842,31.17156 -3.64584,41.67224l-71.21409,59.75575c-12.51426,10.50068 -31.17155,8.86834 -41.67224,-3.64584c-10.50068,-12.51426 -8.86842,-31.17156 3.64584,-41.67224z"/>
     <path stroke="null" fill-rule="nonzero" fill="#4DE1BB" id="Path" d="m134.93754,101.03301c0,14.00248 11.35118,25.35374 25.35365,25.35374c14.0024,0 25.35365,-11.35126 25.35365,-25.35374c0,-14.0024 -11.35126,-25.35365 -25.35365,-25.35365c-14.00248,0 -25.35365,11.35126 -25.35365,25.35365z"/>
    </g>
   </g>
  </g>
 </g>
</svg>